<mxfile host="Electron" agent="Mozilla/5.0 (Windows NT 10.0; Win64; x64) AppleWebKit/537.36 (KHTML, like Gecko) draw.io/27.0.2 Chrome/134.0.6998.205 Electron/35.3.0 Safari/537.36" version="27.0.2">
  <diagram name="Page-1" id="UNFBgXyYSNGovIWBiyTv">
    <mxGraphModel dx="1426" dy="849" grid="1" gridSize="10" guides="1" tooltips="1" connect="1" arrows="1" fold="1" page="1" pageScale="1" pageWidth="1100" pageHeight="850" math="0" shadow="0">
      <root>
        <mxCell id="0" />
        <mxCell id="1" parent="0" />
        <mxCell id="0TGblvGgAYBKJKgvkOkP-1" value="" style="shape=image;verticalLabelPosition=bottom;labelBackgroundColor=default;verticalAlign=top;aspect=fixed;imageAspect=0;image=data:image/png,iVBORw0KGgoAAAANSUhEUgAAAosAAAINCAYAAABWAzXSAAAAAXNSR0IArs4c6QAAAARnQU1BAACxjwv8YQUAAAAJcEhZcwAADsMAAA7DAcdvqGQAAFVlSURBVHhe7d0NcBznfef531CyLTmSIykvsBknAIkBAdpBIsN0boHNGmFoYQUESQhuCNXy7njYQ4y5je8kzCb0GnYRvgLLocvaFCDVne8AL/Z41C53BaZIZIMQPlA0lyobiJYU7AiySQADEvDacujYkmzJZcl6meun++lBz2AaGLxyBvh+XG3N83RPT/dwpuc3/6d7EHn5H55POvT222+7k3c76f7XnZz/GeZ28L8AAAAoPJFIJP2/5n/O7flJ2rZtmzu57Ze+P5E8/5W/dRcGAAAAfHs/ukeRH3zvG8mvXLqsgw/9se0GAADAVnf6yX+rf1LzIW0zQ88AAABApjfefMOERc5BBAAAwEJvvPGmtnHBCgAAALJ5800nLL6dZBgaAAAAC7355ltUFgEAAJDdW2+9pch/u/G3ybFnJnK6Gnr0K3+lyad6tO3HCae1VMiM6O33RFX+sXbV/O4f2j4AAAAUAnM19K7oryry7etjyb/9r88vGRZNUIxcalH1r7xse3Iz9t17lKw9QWAEAAAoICYsRnf+irbZ9pKune/OPSi+6z6pYUR6X63+0faX9c2Rx+wMAAAAFJJtuZ6yuO2V63ojebvevmuH9MAZqfb/kd7xHjs34I5fkhovSu/9bSVvu0M/euvn9fYr/83OBAAAwHro6+vTD37wA9tayMwzyyyHubYl58ria2+/Uy+9eZ9+tuff6I0Xp5z0+A7pA//SzrXu+GUnKH5F+vkyJUea9KPZv9XPku9a5O9J39AFZ6PNhvvThRt2Vhqz3F/q6y85N1/6uv7Sv72ohev+y+Cdcl7PrZK5/Xm0rXn/3AEAsPUcOHBAg3/1V1kDo+kz88wyy5VzWNympO7Y9lNFXv+h3rrng+7FK7p3t53ruLNI+n0nKL6nVMmvHNKrP/qhGxSXdp8+crBNbW3etG+H7Q5z74f0R21/pA/daxqBEJlVcN0P6N7Lp9Xnp9G09eSr+e0/+BHp8oWv69bks4znuSCeOwAAtpZf/MVf1P4//MMFgdEPimaeWWa5cg6L79r2ut5z2yuKPPNJvfHCmN763phU+pBU8XEnKNqK4t073aCoD3xC7/6DIen2O8010XpH5A27lltph/Y5ieu+metO9Ck8937owyp9cUazVPMAAECIzMC42qBo3BZ/5I//9+++8H198NerbFd243/zmH6j6BX99M3b9drNCd323S/rnf/wNemnN6WPPSm9Zz4o6n0f1Y8vPKy3X/yW7rn9ZX3z++/W/Q3/yq4p6GXdePZ7uvODH9D77rRdPjPU+cRf66vPPqsb235Bd77wkl3OVLku6Ec779S3njivGf1UL3zrWT378n368M5gqSvLuu+8Q6/f+KpeuPPD2nmvvx5v/o0LfTr9lLMe5/HS1pW2Hdv0vb/+mr2Pd/8bL39LTz31Pd334Z16Oes67OPc97q+dtpbz8v3fVj3zv6lnvjrr7rL3ti2Ux9Y8ARkbn+wvfCx7w1sp1mneQxvFxY+ftrjpd3vZW9d9j7e+s02XtdLac/zy9467XOXfR0v6et/+YT++quZ2wMAANbTu9/9bv3ar/2aGxKvTU6uOCh+65vjuu/eu3OvLP4s+Q798M1f1GtJL2T89O079fYPvi7948dTQ89+UPzRSEy3vfuXdPc7XtMrb92tt5K3uffJ7kVdPu2fl+cEFLfPCSunL+veB+zQtBMJZ9z+oB3a1/aASv2h2iXHrxe3Y9/8cHXpzLN2yHWp7XhRL923z5m3z9masHUYzj4+K2d7nXkPlGrmfJ8uOGtzl3XaL14et/sd7qWvP6uZ+0pVkgpcwcdO3862gx/RS+eDw/OBx/fGswP7N6NSf6j+AenZ1J389Zt5iz3PIeu4Ma7L9z5g75/D6QUAACAv5RwWb4+8pTsiP3UnM7ScfOe9eqvhgvTz5QuC4rt+ba/uqn1Ur//qP9ObTsg0QTNc8LxCL3TppZedoPIRVdmA4Q7BejfXwH267x57M+jGBRtYTbXSWnI77lPpfHrLvg6Xs4/7PiR3yR073eCVup/bfkkvp4Jd0HyQPn35Xj3wR3YdrsA6zHY6a9npB7J7P6QPl76oF1O/dBR4/OA8936BsH5+Ri+m7pSxb2HC1nGP8zzPnE+/qAgAAKy74NBzcEh6pXIOi+a8w/fc/oo7maHln/vNP5be+KneGvlneuPePXpj29360f/Xptve+XN6531Rvfq1Tr1+fdi9b8T9/zzw0qxmXrxX92RmIDOMel56wA2sB/WR+2z/cqzFOhbIEqRXLTOYltptttOKSoBZ1uFeBGOqsV6Azn6VOwAAWEuZ5yhmnsO4EjmHxZTI7XpHxf+od/7o7/TWf67VK7Nf08v/9XG9fPYP9MaNv9E7pv+tXjrzB/rp33m/4+NWI7e95t7O2b336N4XL2vcBgx3CNa7uQr+UG2W0PXyi3rxvvvkFhzdQOn2Lm87wtaxEcx2Olt23Q9kTnB9diZQadSLmvGvjHG3zc6z95sfel6BJdZx74f+SAed5PxS9tIpAABYI2EXs6w2MC4jLNr6oPltxdt/Trf/cpXeeP8f6vaqf613lTbqHffs0M9Xf0pvfuARbfvlPbr7dx/TXe/9gO6+7ZX5+2YVGMJ0Jm/Ycof22XP73KqUSp3/ZbNDO0vt/bOWroLrflb3HQw5d25HlT6iyzptlrvwou5NVQVz3Q5H6Do2gnel90t2O/vccwiDofg+J/TaIfK0wOzdz3mS7HNktj3b87jY8xyyjtSQvDeE/mF+ZwcAgHV15syZBUHR5wdGs8xyReZmxpLPXF76b0P/u47f0f+845L0G3+m5BuvKFl6SK/83f+rd0X/QG/+8Ft619+P6M2Kf6lXvtKu295TrPf81iNKfvvLenXqP+vst39DrZ//L3ZNBcwMNZ9+UR9esyHhjXBDF9ygzO8iAgCA3Jm/DV26Y3vulcWKB+Ia++49Sn7r/9Jrd0b1+o++q5/9t4t68zv/RXe+U/rxyy+6v79452983P1NxuRPvqdXf/BtXf7u3dpdF7drKWw3xi/PDzUDAABsATlXFo3Rr/yVrp5/XG/++NupP+FnLnx5W7fpraSXO82A87u2vabXk3cqcvcO/XrdJ1Tzu3/ozis85rcCT+ty6vxDcyFHIVUVDSqLAABg+fzK4rLCIgAAALaGZQ9DAwAAYOshLAIAACAUYREAAAChCIsAAAAIRVgEAABAKMIiAAAAQhEWAQAAECr1O4t1Dx60XQAAANjqRoZPq3Qnv7MIAACARRAWAQAAEIqwCAAAgFCERQAAAIQiLAIAACAUYREAAAChCIsAAAAIRVgEAABAKMIiAAAAQhEWAQAAEGpFf+7v5s2b9lbhKioqsrcAAACQyf9zfysOi7t27bKtwjM1NUVYBAAAWMSWD4vYvPgiAADA6lFZJFBkZf5tC/m5KfTtBwAgX/hhkQtcAAAAEIqwCAAAgFCERQAAAIRa/7CY6FFNJKJIYIoN23mLMfer6VHCNgEAALDxNqayWN2t6WRSSTNNd2uiIcfAeKtd/6IeuOce3ZOa2nXeztowZhse+KKuZ97OF9m2KdftzPd9AwAAt2AYOtquURMYj3lVw0RPTaDqWKMet5SYUM/huMbG4ipz+muczuzLbYCP/LnGX35ZL5vptHTwVgaanX+i8+f/RDttM2/lup2Fsj8AAGxht+acxWi5KseuatrcbB/1Ko5mOlep+KOm5BhV+8luVduK5Gh7NGS5DfbA76nl8pRmbBXsi+2BaqPpy6xAusu1q/0Bv/8etfulybTlH9AXTQJdsN7r+mLs07p8+dOqcpZ74Nix9Epc5v3d7gdsnzPdqmBr9+N6xv63n3f2J3U7sFzmfjo7kxf7AQAA8uACl+A5jQ190sRk9vMUc11uHV3/4hd04iO7VGoaTrCZ+j1TcezRA06sa6/6tD542qtAjv/5N3XQT4WXv6ldvX5lskUnDpoQaJaf0if9iuV4k87GbCBKW+9O/Unvn+sjtrp5/r//BXeVCru/E75in/6gTtv+0x90gq29xy3j77+77zHJv/2FYADM2M8Hv5x/+wEAwBZ1a8JiYlIT1btVZgJg2YCap23FcLpb1XaRNLkutx5stctUuKrONmncHzZ1gs3DD7hLOClyWt8MtHc+2KSPnPgbJ9I5PtKkB/1xVlOZ1Dc1fclZXid00K+cOUHzsqlYmmWC6w1jHi/b/XeW6YNuv1fZfKDHBM5bzN//0l1OGAzcdmeGyMf9AABgi7oFYXFYsbK4Ko+2K2qa1c1qdG84mXBoQGPeTY8dqnYtttx6stUut4K3lufXBdfrTssMRFnv/4B63Nu/p79xg6QdDi84m2U/AAAofBsTFu2FKt7FKce0ezqp3nqnP9quo5Xz8w5frZyvGJp5bX1qcPprhhrDl8sHphJ2+dN63Caa618+q8stv7cw/J3/G50w1bXa9OWX5FcdfRmPl3L9i2p3T140YWtcf/6Rb2q6kE728/ez0PcDAIBNZP3Dorn62b8wxZ1G1W4rhEZ97/y80d5ejY7aimNgnrnAZbHlbj0n1Iz/ub550BsWrjLn2/XYqBgYxr7noHTarU6mL+9OYRdx7PwTfbLFG3J+4D/80HaG3N8Jkfp0le2r0tmmXv3JmpVCFxHcx5VWAYP7+eW7b81+AACABSJzM2PJZy4/r7oHnSSTo5s3b2rXrl22VXimpqZUVFRkW+vIXO1rrukooJ+HMf+2G/LcrJNC334AAPLFyPBple7cngdXQwMAACBvERbXEz86DQAAChxhEQAAAKG27DmLAAAAW8VKzuf3z1nckmERAABgq1jphb1c4AIAAIAlERYBAAAQirAIAACAUIRFAAAAhCIsAgAAIBRhEQAAAKEIiwAAAAhFWAQAAEAowiIAAABCERYBAAAQirAIAACAUJs7LCZ6VFPTo4RtAgAAYHnyJiwmemoUiURSU03PBkU8EyhTjxvTsO1eE4RVAABQ4PIiLJqgWDbQrOlkUkl3mlbz1aGNCVnRdo1Od6u6utt5/F7V224AAADkRVgc1qNxqftku6K2x0lwau912rYy1xObr/qlVyBr5BYg3eViitX4/RHFAiXCIff+C/uzSnvMwH3CHiOzephqJ9RzOK6xsbjKnGU3rFIKAACwhiJzM2PJZy4/r7oHD9qupd28eVO7du2yrcXNzMzYW9mVJv9aNYelk6PBsGiZ4FUWV+W5pHqzlfyGY4oM7lfyyKSz3ICap0fVblZi+hukc9O7dSx4f9N/bLemMx/LPI6/DZmP6d/npHQ47DGC25+5riz7ttRzAgAAsJTS0lJ7a3FTU1MqKiqyrdyNDJ9W6c7tGxMWF92ZtECVUE9NmeJjTr8ZFjYBLTNs2TBnFnFlXW5Yscgx7X6qWQNHA/0h4W3RgOe3V/IYYY8HAACwCkvmq4DVhsVbPwwdLVfl2ICG3FHaqNpHk0qacwjdmRlM+HKre/bcxrDlAAAAsCby4JzFeh3pluKHc7xquLpZjbZMlxgamK8wBg0Pqs8sV2zb6yH4GGNXNe31LtymwDwAAIBCkxdXQ0fbRzXdPOBeCOJePFIWl5obFw7dRtt1tNK7YMQsd/hq5Xxl0V5I4t7fnEuY69CvW630L0RZ4qdzsj2Gs00nuyfUYPvTtslsb1ufO48LXAAAQCG69ecsroWNODeQ8w8BAECe2FrnLAIAACBvbY6waH5Ye70rfhvxGAAAAHmGyiIAAABCERYBAAAQirAIAACAUIRFAAAAhCIsAgAAIBRhEQAAAKEIiwAAAAhFWAQAAEAowiIAAABC5c3fhv7MZz5jbwEAsPl97nOfs7cK05kzZ+wtrLUDBw7YW+E28m9D51VYLPQ3DgAAudgMn3kmLO7Zs8e2sFauXLmSd2GRYWgAAACEIiwCAAAgFGERAAAAoQiLAAAACEVYXI5Ej2pqepSwzbWXUE9NRJHYsG2v0HBMkUiNetZvQwEAG2ndP3/WwWy/mpr6NWuboS52qLi42J06Ltq+XOS6fqza1gqLq3yzJYYGpOZGRW17rSV6DiteeU7J3nrbswzBfavvVfJcpeKHC+zAAgBQTSTifOH3p5hyLh+EfcYt6DeFiXwpKFxUR8s1dV6a09zcnI7vtd3LRXBcV1srLEbbNTravuKwN33VZMX1iorDejQudR9ZQVDMpv6IuhXXo6ssUgIANlh1t6aTSSXNdE5qWG1FMdqoZg1oyF9JYshpNWvdPs6WY/a6rqlCO0tsexN67rnn7K2FFpuXT/IvLNpvQD2x+W9WqVFZMy/4jcu+gRI9Nel97jpiipkhXdvvriPt29WwYv59gvNTfZnfuoY12FepcufNlfZ4actlWWeQu/7gt0SzvG0PD6qvOvDmTdsWu0za9jtSbedb4uG4xsbiKnOWr3E3KKrG5mpNTKbtBACgkNTvV9vYVU3bpivb50PWzwGf+TyQBvy06FU+3MLJgs9Pb4mVMxU+O6RcXNulcdud1l/cpH63BHhRHe4yp9Ri+pv69dX+ptSQdGq5zKrhgirirPrjznrGu1Tr3K/JW3leePXVV/XEE09oZGTE9swzfWaeWSbf5Wdl0XmxX93vf6tqU98x8wJ2glVZXJXnbP90t6rNss6b5nC8Uufst7BzlfZNNTah3ScD62gIhjRTgm+QcydvvjP11pv1X9VR205OO9/DgsO4Jsy17Zep+0XbR1P3c4d73fJdtnW695wXbdfRtj4N+hsSWGdickLVqSHu9H2d7p5Qw6LnMUbVftJ5Puy30dF2by3R8kqNXU07xAAACkii55j6qnerzLbDPx+yfw74gp8Hw4N9qvQqH9k/P1fMC38VJ7wh5blLnapK9Sf0sOlz+xs1FDdhb6+Om2WqOnXJ9J9t1W+3nvWWMdOJCnX15nISY4lau+fXc7Y1f8qUd911lz772c/q/PnzaYHR3DZ9Zp5ZJt/lZ1h0Xuyp0diy3TYUTmoi2O+LlqtSfWqw367qe3vd8OUkr/kqnflmpglNztm2W4LPWJdZv7se+w3LeTOOBb7NmTdX2357h+C3uoY+aWJSiWzrzKJ+vxNcbVocHpzIPuycsa9R5ythdd9gIOzmyDx3ZttsEwBQAGx10HzGlA00azp4+tRKPx/M56C7XEKTE21yP87CPj9XygwpO4EtlnneoTvUbKuHZjLVxPGEbtjZaYIVyJZT0rXrBX8eYmZgLLSgaBTOOYvTVzVmb6arV6/7rWi/Bt03V7CCuEz2G5lfGUwm/TeOeXNVa7f5ameCYtmAmqftMn6FM1fmXMIJ84Yd1uDEOp8zYp6zyvL5gwwAIP8FP4tWcZ59unrtb5vQ5PCQBiq9Ea01/fxcil89TE3HteBaFhMUa4fUaC92ma9MFr5gYCy0oGgUTlh0z9sInKDrc8JbzD03w7zop9VdHagg+vzzAYtt2z3ZN+PiD/MNy/k2l/WCkMyTgQNVS3OFtBtis63TcKuQwTegOXdkQoOxQU0Erqx2hwgGhrwqYMa2uI9hh6sVqHamHtuXcV6LO7TtJlwAwKaw2OeDkXl+Y0D9/krFG+KqDIySLfj8NM0Fn1s5KtmpivEhXbClwNkLQ945i25/l3IaUa5q1D47ipy6vxGoRKb1B4VVK/OEHxgLLSgahRMWzYvZnB9YZod/zTCx6XbeOE6n1xcp00DzSbWbUBgo40fMqYRp3868czsmGux8Z4oNO+ufTu9LXUAT/Mkcc95h5fy6D1+ttJXFbOt0Zyxghg0m+qSjwXNK0sJw+raUmXNKzAmQzmOfNOenLHhshz0f0szzTmxOaGhgzDsvBQCwSYR8PhgLPgcyuKdk2SFoI9vn56o+MvbquDnPsNYbRo4nKmxl0Ds38VqLHV42U7afuSlp1cMV3kUqafd3+rs7r6WGsefXG2Due8gb6s6nC1wymZBYaEHRiMzNjCWfufy86h48aLuWdvPmTe3atcu2FjczM6PS0lLbCveZz3xGn/vc52wrB+aHpwf3Z/9NQvOt6LB0co3K98OxiAb3Z7lgZY2Zq9LKrh5d2e8sZjLPz7Hd6ee6AADywrI/8/LQmTNntGfPHtvCWrly5YoOHDhgW+FyzVfG1NSUioqKbCt3I8OnVbpzeyFVFr3Q5n0DciZTLVzv9OYyP5kT+Ca2jqLtJ9U90bA2f8GlYULdJwmKAABgdQoqLNb32hN+3WmRq7aiq/vx7XTmXI5VXiGWs6jaR519W20INn/BJTm6yuEEAACAAguLAAAA2Fh5dc4iAABbxWY4ZxHrI9/OWcybsAgAAIDccIELAAAA8gJhEQAAAKEIiwAAAAhFWAQAAEAowiIAAABCERYBAAAQirAIAACAUIRFAAAAhCIsAgAAIBRhEQAAAKEIiwAAAAhFWAQAAEAowiIAAABCERYBAAAQKjI3M5Z85vLzqnvwoO1a2s2bN7Vr1y7bWtzMzIxKS0ttC+upvNzewKKmppqVTA7YFgAAhWc5+WpqakpFRUW2lbuR4dMq3bmdsLiZmLDovB6wqNPuRFhcnjNnzthbWG8HDhywt5Crz3zmM/bW+vnc5z5nbyEXHDPCrdV7nLCIFSEs5oKwuBLmwL9nzx7bwnq5cuUKYXEFTFhczzC33uvfjDhmZLeW7/GNDIucswgAAIBQhEUAAACEIiwCAAAgFGERAAAAoTZ3WEz0qKamRwnbBNYNr7Vws/1qaurXrG0ukG3+UvfByl5zvE5xq+T6nr7YoeLiYnfquGj7cMsVXlgcjikSicxPsWE7A1gl80EaeG3V9NiPVD5g18ZKAiCh0ZV2zPNfnyf+wc7NwOvVGlYsr56HhHpqnH+7XLZpy/4bXlRHyzV1XprT3Nycju9Y6v0/q/4mJ1jmcozgWLIqBRUWEz01ijRI55JJJe10ToPOIQFYvVjZgJqn/dfWOVVenbZzsCZKWnX2bKtKbDMnK7lPHnnuuefsrYUWm5fJfU1Od6u6ulvT9tg32vJLdm6GaLtGR9sVtc2tyP2scD4s+mw7LySGNKA2538DGloqBW7Vf8PZ67qmCu3M9Q0/e0FDOuT8b0gXlkqB63QsWav3eL4rqLA4NCB1T/eq3raN+l7bTqsKxRYGyGzz7be3nlhGX6RGflEJW0mlylNH53r19ppXVkI9h+MaG4urzFRzei641YH5gvawYub1MmebRtprLfBa2mSvrdn+ptRwUeqbvfn27vcVdyhtFCn4zT64XG2Xxt0FsvDvY//b3+GvOzBElfaYTerPk9LBq6++qieeeEIjIyO2Z57pM/PMMqs15B6/vMl9XdrjmvcyM6/PwPxLbqfHHaVxXo8XgsfBwHqMkNeyF8Zsv32sbH236jUfbR/1wrVtr5esx4KQfU2YD7DmI9pfOaaBVFr0/n3SRjEC/yamN5+e1zWT9T17UR3useCUWkx/06N6NO60x7tU67SbsryxZy8MSY0x1VWMayiVFp31BJd3H8t5jK/aY4nbleXYtQIb9R7PBwUVFgfGgh/mQc4briyuynPeN+7p7gk1pA1PLzLfCQFX95v+9BCKrWd/W58azAE57bUTVfvJ+YrOaPs+tR9tU9+gXWZ4UH1tR9Ve7DW919pVHbXVn+R0swYO+x/cm4hzAI53VejEnDdcdKIioRv2YF9xwuu71HlNLVlPOkpfbu5Sp6rsnEU5HxqJOnufE4d06nFzkDfrSuhhux1zlxo1FF/5wX8t3XXXXfrsZz+r8+fPp32YmNumz8wzy6xK6vjlTOec1+Wx4GvNDHu6QzHefGfqrfVnOWHDnTXqvXazrifktezc93C8MjXCc67yqqaz9XmPtKllPRZk/YxKuMWO5sao6ve3aWxgyP47OV9KnVCr+KPOs22+mJrRDftvYmzK5zXsPbtXx82xoKpTl0z/2SM60j3fPtuaWROclZsV95Vob90hjQ9dsO97bz3q6nUeaVb98SE1Xjqr1ve7M0OOXSuzIe/xPFFY5yxW71aZvZkmMakJ58P8iE170cZmVfcFhqcXmx/od5nyvzmAbuUxnC2qvtd+KO4f9L7Fp4XGgPr9arOvn+HBPrXtD7yAzGtNNnSayfmSMjZmD/Cb6bVVslMVbgXAqx7uPX5ce80QknNgj+21i+xrVNWpEXd+mozlcha8z46oFzDdYStbiTCTqUyMr/zgv9YyP0zW/EMkePwq251eSXOHPTOOb4apkrshMPAFOdt6wl7L0XJVuv3eaIw7upOtz6xjsx9PQ44FwWqgWzV0/y2a5WRF7z5jgaFo5zk6aQoYkTINNJ9Mf6424/O6Vu9Zdwi6UU5WdA5AdTo0HhiKLmlVt/myWlyrocZupeXMbMcub86KrPt7PE8UVFisDL7BgPVS3+uExnOpD4GF6t0q5ODwsAb72hTMii7ng9c/r8ybNmPV2vn27n4zr9OIe9DPGHLeSH4lIjWt7uC/1oIfJnnxIeK8Ps8tGH0JkfW1XK9e9/Z+DbqByASZbH1bQfZjgTsMbp+zUSfRmSFo/1QW71zK4FC0yYSV9lamTfq8rsF71gxB+0PUxcUtTvwLDkWbTFhhb2Va+2NX3r3H10FBhcUjplpflv5mGY45bfPty3kjPmpnuG/Mtv3O28xaan5QoZ8LghWrCX54utXoQCXbrw5a9c6LcaKhQRPdR9JfRxmvtTSb6bU1268O95wgc+C9pM6qa7ou5xu7c/DutUde92B+qG7hh4D5Zh+oArjLeTeXz13X/GPmK//DZEM/RKKNalb212KZE2bOqWH+XLlswl7Lzus45t7PBJlpdVdPaPJClj7T3ALH09BjQYoZgh5TW+B0ADPUPz8UPayYe0rAOVXGD6c/V9me60J/Xpf7ns1adTRD0OM65J/KYqYTwaHoi+pokU7MnVBFVzz9POZsx67g/BW6Je/xDVRQYdF8W3PPN3S/YXlTg0zoc95I0+YN6/WVmXM83IsTfEvNB6TmiYbU6ypirow+aa9GjLbrqD2fMfXhaj6Iq6vdc5DSpb/W3Mk/KX0zcQ746qr1hpFSQz3euULXWkxfsWrNeUHHs9ULnOVOVDh395aLJypyO2cxq/THdKdVnLC+nswHyMZ+iHjn2wZfi8ELXOp7TTgpC/8JnrDXshMinW/tts8One7L0ncLh0jdYWB32Nyr5uVSRF2x0GOBle10gNRQtBMU3Z/4sBXbc5XpBZFsz3UhDj2nWcZ7tqRVDx/yhqzTLnBxh6AzTmVJDUU7QbHYJEVTrfSPNYHqYdZjl523Shv/Ht84kbmZseQzl59X3YMHbdfSbt68qV27dtnW4mZmZlRaWmpbWE/lznFlaso2EOK0OyWTA15zpcyVpMd2a3qL/LzFmTNntGfPHtvCerly5YoOHDhgW8jVZz7zGX3uc5+zrbW36Pq32LEgVxwzslvL9/hy8tWUEw6KiopsK3cjw6dVunN7gV3gAuQJ92T2o3w4AFsdxwJsBYRFYAXMldOcyQCAYwG2AsIiAAAAQnHO4ibCOYu5WKNzFrcYc/4RNgbnLC6fOadwva3nOZGbEceMcIV4ziJhcRPxwqIJQ1gcYREAUNgIi1iRSKTZ3sJSCIsAgEJGWAQAAECojQyLXOACAACAUIRFAAAAhCIsAgAAIBRhEQAAAKEIiwAAAAhFWAQAAEAowiIAAABCERYBAAAQirAIAACAUIRFAAAAhCIsAgAAIBRhEQAAAKEIiwAAAAhFWAQAAEAowiIAAABCERYBAAAQKjI3M5Z85vLzqnvwoO1a2s2bN7Vr1y7bWtzMzIy9BQAAgLVSWlpqby1uampKRUVFtpW7keHTKt25ff3DIgAAAG6d1YZFhqEBAAAQirAIAACAUIRFANgqEj2qqelRwjYBIBe3Piyag1ckokhgig3beYtZj4MeB1IAeSLRU5N2XKzp4cgE4NbIj8pidbemk0klzTTdrYmGHAMjAGxCJiiWDTTPHxeT02q+OsQXWQC3RP4NQ0fbNWoC4zGvwpf+7bpG3pfrhHoOxzU2FleZ/cadfbmM+/tVw7RqZvg6AWDjDevRuNR9sl1R2+McGNXe67Tt6EdPzBy7Ys6SIcdId7mYYjV+f/oX8CH3/gv7ASCbW/47i6XJv1bNYenkaPDAOKxYZFD7k72qtz2u4Zgig/uV7HV6zcFwwf0sf7kjk6opu6qjdj3DsZjUu1+DwXUH1xOyTn4rEsBKZPsNtJUdEy1zjCqLq/JcUuYwuEDasW9AzdOjajcrMf0N0rnp3ToWvL/pP7Zb04HH4ngHFI6N+p1FmbA48J++lHz55ZdzniYnJ5O5SiQS9laI6e5kdXV3cto2PeeSbWpz/t9h5ktJZ5u9yV82835ZlzPrMW27LiNzueD8rNsCAMsXduxb3jFxOtldbY9Tpi/bMSrbsW/BcuZYWJ3sfiqjn2MeULCWPJYEmNyWLc8tNQ38xy8ln33mb5L5eTV0YlIT1btV5n6LNt+O589ndA6KC4UuV69e93wfU000Qy7esE3aOZLulFHBBIBbJVquyrEBDblnwkTVPho8pmXI9RgJAKuQh2FxWDEzTHLUDotUN6vRjo8khgY05t30jF3VtL2ZdTnnQBpzT+AxoXFa3dUTmpQ5EMf1aNh5OsF1AsCGq9eRbil+OMdfZljsGOkbHlSfWa7YtgFgGfIjLNqLSrwTro9pt/Mt2T2fJtquo5Xz8w5frZz/1mzmtfWpwemvGWrMvpzzDV3xMrveMg00n1R71AmO5gKaBv/xnMm/8CW4Ti5wAXCLRNtHNd08MH9cdL5Aq7lx4TmMix0jg8dVc75itnMgASAHG3KBS64nYALAZhF27NuQY6IZng67SAbAprCcYwl/GxoAAADrhrAIAJuN+b1aqooA1ghhEQAAAKEIiwAAAAhFWAQAAEAowiIAAABCERYBAAAQirAIAACAUIRFAAAAhCIsAgAAIBRhEQAAAKHy5m9Dnzlzxt4CgPx24MABeyvcav829LHPP2ZvAdhqjn7qEXsr3Eb+bei8Cot79uyxLQDIT1euXNmwsJjLBwaAzSXX9z5hEQDy1EaHRXOQB7A1mGyVj2GRcxYBAAAQirAIAACAUIRFAMDqzJ3QQw+d0Jxtrr05nXioXOWdT9v2Cj3dqfLyh3Ri/TYU2JQKJyzO9qupqV+ztolF8FwBWI5Vhr25i8NS/V4V2/ZamzvxSR0v/5Imuz5qe5YhuG8f7dLkl8p1/JPrGWyBzafwKosEIQBYW8UtevLJlhWHvbnrJiuuV1R8Wv3HpY7WFQTFbD7aqg4dV/8qi5TAVlJ4YbGkVWfPtqrENgFgNZ577jl7a6HF5m04WyE70Vmu8nJvSo3Kmnm2z51sJW3uxEPpfe46OtVphnRtv7uOtMri0+r07xOcn+rLHMZ9Wk89Wa6dTlZMe7y05bKsM8hdf6ezlM8sb9tPP6Un769XKoumbYtdJm37Han2nE588ri+8Y3jqnOWf8jdoGLtrb9fk9fTdgLAIvI7LJoqYnGxis1U26Vxv89WFmf7m7x57tSkfr/cGLyfmczy9n79HaavQxfdxbLc312uQx1NXn/HxVn1p267a0+/X1iVM20b/G27qA6n3eRvqLuMN29F25IxP9UflHU7ABivvvqqnnjiCY2MjNieeabPzDPL5A0n9Fz/2KQmJ53pSw/pyf/TBCInWNUdV/mXbP9Ih+43yzqB6ZPHy/Ul0+dMXyq/7oWpb0xq5xcC6/h4MKSZcwM/LudO3nxn6vqoWf91fcK2J0fqNRwcxjVh7qGPydT9ilueTN3PHe51y3fZ1unec15xiz7x0JN6yt+QwDrnrk/q/tQQd/q+jnRM6uOLnsdYrJYvOM/H/R0acZZ/ssVbS/HOcn2DsAjkLI/DohOsnIBY4XwTnJtzpkudqrJzfCWtZ715ZjpRoa5ek5QWud94lxJ1pv+49jrN7Pc3y11TtNv0HdKplrjk337cC53xrgrnG7N3vxMVCd3w7hVgtiGhh/11X2rUUNyEyr067myP80DOEk7wiw+p8dJZtZascFuC8937mWW8IOwJ2w4Axl133aXPfvazOn/+fFpgNLdNn5lnlskbTuhJjcYW77Sh8Lomg/0+Z365ntTHbfXto11dbvhyktd8le6jH9NDmtT179r23EUNK2NdZv3uemw1zwlr3/iGDZ6Op596Ug99zN4hWPX7+JPSpLNctnVm8dGPOcHVpsWnn5rMPuycsa/Fe+t1/5NPBcJujsxzZ7bNNgEsLn/D4ux1XavqVMykujDBqlnLKenadSfMLXK/zP5s9zf9VY3aZ8a5d0RVFbxt5pXsVIVOqcVWJ/ce94JnsDLY9OgVXXOXses2VdFxGypLWtXdec2ZV6uhxm43KLpWsi2G32fsrdMh55Gvf8e2zXMRth0AXJmBMW+DYhgnQH3D3kz3UXW5lbyP6Sk3wAUriMtkK3OpquGkDZ5O3Lo+eb87BO0Gxbph1Y/YZfwKZ67MuYSTJvg9racmA4F2PZjnrHznul2QA2w2hXfOos+Eq1pTmfOrZraCeCPhDVcvJez+S9qr426lrk4jbgjzQmOwMnj24H1uML1k297khUqjZGeFvWWteFtysMh2APAEA2NBBUXDVAe/MayLmWUyJ7x1uufomdA4oo77AxVEn38+4K/YdvFe1Wde/GEqlN8IuSDErRoGgl2gammukHZDbLZ1Gm4VMhhgzbmEk3qq8ylNBq6sdoeMhy96VcCMbXEfww5XK1DtTD22LzDPcIe23YQLIBf5GxZNBW98SBfsmOnshaGFITBQVUvNN9W1wP0Wle3+S3GCXYd74p8JjZfUWXVN1zMfy932LvkjyekuqqNFOuEcKCu64vPnEK5kWzJdHNEps5732/ai2wEgyA+MBRUUXU4YNOcH1gWGiU23E6ycTq+vvE7D9V9QiwmF9mIPb6hY+lLaVdDeOX6TH7fznanzaWf9I+l9qQtogj+ZY847LJ9f9yevl9vKYrZ1ujMWMMPKk09Kn7DnFrrSwnD6ttSZczLNCZDOY3/BnL+44LEd9nxIM8+7wGVOF4e/oXLCIpCzPK4sOmHMnLtX6w2hxhMV6dW2klY9XNGlWjvEOj8//X6pC2Myhd5/CU4Ac1burTtzKDnFOzfxmnPA85ZzJvdCGCcoOgcunTDVPX87O3RxpdtiOGHQv5+76rQrxcO2A0A2JiTmbVB03uBpP28TbJvfD/SHiL/0kJwk5PT7w9De5F/ckT6kbIeTg+sytwP3cy9GyeibtMvOXU8PXR/tml/mya6uHNbpD2db2fqcVmuHk3v9cmLauuaXDV5ck/bYDn+73Ofg6X4dz+EcSgDzInMzY8lnLj+vugcP2q6l3bx50/1j17nI9Q9dnzlzRnv27LGtNXSxQ8UjdZo7vgkHX83wtbnmhZ8SAjbMlStXdODAAdsKF3bsy/WYeOzzj+nopx7R1NSU7Qn3dGe5zPUknof0pQWByzJDv5+UvhAIUitnft7mKX0s7LHWlLmium7lP8ztM3/B5eOT6hh5UsHiJZAvTLby3/tLyfVYYpjjSFFRkW3lbmT4tEp3bi/gcxYXcdH9eRw7uYU8ztIDsHkFK3rBatsCpiq3JkHRMJXLjQiKRrFannT2bTVB0XArsARFYLk2f2URANbQRlcWAWwtVBYBAABQUPKqsggAhYDKIoD1ko+VxbwJiwCwmRAWAawEw9AAAAAoKIRFAAAAhCIsAgAAIBRhEQAAAKEIiwAAAAjF1dDYMvh5JqwVfjoHwHrhp3OAW4i/EoS1wF9wAbCe+OkcAAAAFBTCIgAAAEIRFgEAABCKsAgAAIBQWzMsDscUiUTcKTZs+/JZokc1NT1K2CYAAMBGyZuwWGPD27JC3IpC1LBiDRPqnk4qmUyqt952r6eNCHsEyhWb7W9ScXFxamrqn7Vz1tFsv5qa+rUBjwQAwKrkT2WxulvTTngzAS453a2JhnWq+iUmNaFKlUdteyNE2zU62q6NfEjkxgTF2qFGXZqb05w7nVBFV+3GBEbkheeee87eWmixeQCwVeTnMLQJVyYwHvMqZYmemkDVsUY9bvksoZ7DcY2NxVXm9Nc4ndmXCxpWrMy5j/rUYJapalJVTY96Ymb5mDPXYSp0qXUE+mpiitV4/bFh57FTt80C6dK2w1T7/KrfUuvJrA5mth25PhfufVPLBfcj2/5me662govq7ZI6u1tVYnukvTp+qVMauqDZzOpfWvuiOgLVyI6LGRVKu1x61bJJXgadVX+8S+PjXap1+t1gatadWq7DWbt7Z/fx+jsCfVhTr776qp544gmNjIzYnnmmz8wzywDAVpa/5yxGy1U5dlXT5mb7qFdxNNO5SsUfNTEnqvaT3aq2FcnR9mjIckH16nVCqH+f5ECt7nAC1tX95j69zlwvTFae89Yx3T2hBj8Njk1o90mz3jb1NRyW/Ns20KY44etwvFLn7Hacq/T2ISXX9YTI7bmYXmQ/gvu7xc1e17WqRu2bT4qekp2qGE/ohm0u5IS9phbphF+NnNPxHf2Kd1U4XV77RIV3/5LWs6ll5k5UqKvXRL4StXZ3qqqq061onm29oY7aLlXY9V3qvKYWkz4NJ1Am6kz/cSfGYq3ddddd+uxnP6vz58+nBUZz2/SZeWYZANjKCuMCl2CVrKFPmpjMHqxyXS7ICVhH/NRkhqgD7Whjs6r7Br0KXHWzGs04ctluJ5QFbpt5QSbkupVLr3JX35sRynJdT5hc9nHR/Qjsr2GquMlROVkbuZq9oCF1KhZMbyZg6pRabAVw73Eb7oIVw5ZT0rXr85VKnxta59dXsq9RVadGvEpioB/rIzMwEhQBIF3+hkU38OxWmQlHZQNqthekmPMZswarXJdbd/XqNY+f3K9BN9TZ4d61kDf7uEm4FcQhXchMb254i2qHbeZmr467FcQ6jfhDySYo1g6p8ZKtLF7qVJVdGvklGBgJigCQLk/Doh0OPmovCvErcI7E0IDGvJseO1TtWmy5XLhD33H5o9fuOtr2L2+41gl0MfcEQBMap9VdPaHJOW9WTgL7k3UfcnkulrMfbqVyq56zuFexTqkrHrwq+aI3JPywPY8xMBw9e2FI4+ZGyT41qkvuiLLPCYYd7gmJJjReUmfVNV3/jtMMDHOn7u/z1+2G1vn1ucsdqmPYeYP5gZGgCADp8ics2oszvAsyjmn3tP1Zm2i7jlbOzzt8tXK+mmbmtXkXq9QMNYYvlzPvnEZzJbZZR5k593C5v63jBDXFy+x+lGmg+aTai+28pTj7c9KcXxi2D7k+Fz1lq9+PLcKcU3ipcci90MS7uMQ7F/G4SWolreo25w/aefFEha0MeuccXmvx71Osjhs7ndRZa9u1GmrsVutvt+rhCu8ilvT7O5x1P3zIDFubC1x2uBfV+OurNec+uhuAjWZCIkERANJF5mbGks9cfl51Dx60XUu7efOmdu3aZVuLm5mZUWlpqW0Bt86ZM2e0Z88e28rCDBvHpe6zwaujgXRXrlzRgQMHbCtc2LEv12Pisc8/pqOfesS2AGwVub73l5OvpqamVFRUZFu5Gxk+rdKd2wvkAhdgI5hqX6oS6P/MDQAAWxthEQjYe9xejDJ3Vq2UFwEAW9iNue/p8rPXCIsAAABYaO7bf6+v/90U5yxi6zDnLAJrgXMWAayXfDpn8dOf/rTeeustwiIArAfCIoCVyMewyDA0AAAAQhEWAQAAsMDPvfsO3XvP3YRFAAAALPSRD+/WwQN7CYsAAAAIR1gEAABAqLy5Gtpc/QMAhWA1VypyNTSAxeTT1dD+n/uL/OOa48l773tZ//7fd9hZS1uvsHirD4yvvPKK/uIv/kJ/+qd/qrvvvtv2brwXXnhB27dvt61bL9+2B7hVzHuh/+RpwiKAdZOPYXHb10a/rxs3XrXdW5cJirFYzA1FJiyaNgAAwFb11dHLOuF8QeacRYcfFP/5P//namtr05/92Z8RGAEAwJb22muvO1noVW37wO579N6iO2331hMMir//+7/v9pkhdgIjAADYyj72u7+t/+0T/0LbhofqFGsrt91bk6km+kHR5wfG733ve7YHAABg69nyw9DmQpbf+Z3fsa10JjDmeiEPAADAZsQ5iwAAAAi1ecNiokc1kYhqehK2w2H6anoU6CkwCfXURBRx9itzSttPFB77ek379yz41ysAYDPY3JXF6jZVDhzW5slRUbWPJpVMOtN0t6qruzVtbjvTaHvULoPCM6xY2YCap+2/bfKcKq9OO//c7RodbXf+1QEAuHU2+TD0bh05Wqn4o8O2PS/RUxOozNV4gdKt5MQUs9W72PB8JS/mryKtAmTvd8t525naRhM+Iju0o2p+X/J/H7a6SpWnUmG9envr7evRVBYXVpTdf0v+HQEAG2Dzn7NY36tzaggEKU+0fdRWcZzpXCBQjk1o90nT16a+hsOSf/uY+dA2FaCrOurfb7pZA4fzYZgwqvajzjYO2n0YHlTfQ3V639ftvrj7aPYn5uxBvu7DVlav/W19ajChL/OF6gpUlJ1/R1V360g9/44AgI2xJS5wqT/SrQk37AUEqzINfdLEpDe/ulmNpsJTtlvVwdtmXmJSE7If6mYqi2ts7KqmzbxbrX6/2voGnShosmKf2h7YPb8vhpnvbP3khTzehy2svteGvv2D3r9LttBoXrMNE+o+2a5oPr8WAQCbypYIi+bcr5PNA3p0yLbNh27wHDFz/p+dtaTAeYLe1Kt6O+vW8qpTg8PDGuxr0/5a251N3u4DTCXcnLPoB/95CfUcjqvy3KhSp6fy7wgA2ABbIyw6ou1HpXhcY7YdrLolhgbm+xcTLVflWFxZToHMC24FtaFBE91HFoYGMzRt9nlffu/DlmS+vAQriaZqWL1bZbZpJHoOK155TuZURleevxYBAJvHlgmLpvLWa873MqLtOloZV5kdwjt8tTLHyqKzjmkTyOzQn5ny6adNoo1qrq5Ws5+CnTDh72OkQTrnXlmb5/uwFZl/t4mG+X8PU/U2Q812trlg6dG483Wmz1/GnHvKvyMAYGNE5mbGks9cfl51Dx60XUu7efNmzn/ZZGZmRqWlpbYV7tjnH9PRTz1iW1vbCy+8oO3bt9vWMgzHFDm2W9MmFJpqlbk+Zw1+emXF2wNsMua90H/ydE7HqrBjH8dEAIvJ9b2f67HEmJqaUlFRkW3lbmT4tEp3bt9KlcXNz72w5ejqwyEAAICPsLiJmCtq589p4wedAQDA6hEWAQAAEIqwCAAAgFCERQAAAIQiLOahV155xd7KD/m2PcCtwnsBwFZEWAQAAMACb7z5ll57/U3CIgAAABb6/g9+opnZHxIWAQAAsNCvvPc9+mB5EWERAAAA4QiLAAAACEVYBAAAQCjCIgAAAEIRFgEAABCKsAgAAIBQmycsDscUiUTcKTZs+7aiRI9qanqUsE0AAIDV2CRhcVixhgl1TyeVTCbVW2+7N4N8DH9mm2wwN1NNj791zr9Dqj/mtHxh/QAAIN9tjrCYmNSEKlUete3NJNqu0dF25dWuTV9V5TkvmCeT51QZPyyTF4djDZLtn+6eUIMt8Yb1AwCA/Je3YTHRU2MrUWaqccOIJ1ilMkPOTrssrjH1qcH0VTWpqqZHPTEz31ax0iph4euKmApeZiUv2M62Hjvfezxvms9CmduaUE9N5vzg9mThP/5ijxPcLve5sEK3N6aYsx0L1pOr+t5A9bZMu6vNf4c12Nem/bY/2tis6olJ53kL6wcAAIUgb8NitH3UVq6c6Vyl4o+aRGPC1nyVyky99fXqne5WdXW3pk3fQK3uGIvr6n4zv1f1JpCVXdVRf13TzRo4bMJfxrrMOryHDhG2Hkfq8ZzpXJv6jmVZvzP11kfVftSZP2jT2fCg+tqOqj3XsmHWxzHbFZ+v9KX2Y7HtndDuk7bfrKdhFUPDiSENqFmNmfsQLVfl2FVN22ZKWD8AAMhL+TsMHayKNfRJphrlBpNuHVnqnEQnOKaWcYeobdXRTKby5oaVaV0dm694LSl0PY7g45Xt9sJa2LbW71db36AbzoYH+9SW8wY4sj6Os13Bft+i2xsId2Z7nCUnV1TqM4HUiYon82yYHAAArJn8DIsmKJoQYi9YWbrqtwS/6piaTMVxBdZkPfXa39anweH04dl1sVb7nZUTFCPHtHt6NHtl1A2xu1Vmmylh/QAAIC/lb2UxUP1KDA145+FFG9WsuNwR6Vy5w57Z7mPOtTOhzTaDAsOk848dtp4Qi2xr/ZFuTTQ0aKL7yOrDm7tdAxqylcFlb68ZCg9WGnPhVn0zg6Ifgr2Wux2V5YqG9gMAgEKQn2Ex2q6jlXGV2SHUw1crbWUxqvaTJmjZoVVnWvriDO+cxuB93AtZMtflXxjiPPZJc8WuXXb+scPWE2aRbTVBsrpazctKaGGc7TLndJZ5j5HT9joh0n9uI+a0ymVebe0F0rHUY5rJ/HxOfe85OU+c2y6LV+qcvQomrB8AAOS/yNzMWPKZy8+r7sGDtmtpN2/e1K5du2xrcTMzMyotLbWtcMc+/5iOfuoR27oFTLXssHRyI36mxvyA+LHdmg55rMnJSZWXl9vWGlvBfq7r9gAFxLwXBs5+OadjVdixr2COiQBuiVzf+7keS4ypqSkVFRXZVu5Ghk+rdOf2PB6G3sTcC1uOclEIAADIf4RF3wb++HV97y38KzP5+CPfAAAgbxEWAQAAEIqwCAAAgFCERQAAAIQiLAIAACAUYREAAAChCIsAAAAIRVgEAABAqLz6Cy7NTQ/aFgDkJ/6CC4D1lI9/wYU/95eH8u3P6/Hn/gAPf+4PwHrLx7DIMDQAAABCERYBAAAQirAIAACAUIRFAAAAhCIsAgAAIBRhEQAAAKEIiwAAAAhFWAQAAEAowiIAAABCERYLTaJHNTU9SthmQRiOKRKJuFNs2PYBAICCsHnCYiGGqC1hWLGGCXVPJ5VMJtVbb7sBAEBBoLKI9ZWY1IQqVR61bQAAUFDyNyyaSqEduoxEYnJHLzOrh6l2Qj2H4xobi6vMWb6mJ6O+6K7LrsM1rFhaO88Fn4syZz9td/pzVCN3t93nJKZYjd+/9kO/iZ6a1LpTj+syz2vwcZ22u719ajB9VU2qcv69emJmfuDfNHWf8HVFzL+zu2/Z/v3t7cz12Pne43nT/HORua3Oa8h5ztLnB7cHAICtKU/DohcyKs95Q5fT3RNqWDTxRNV+slvV1d2adpYfbc8oY0XbdbStT4P+KoYH1de2X4UxIpr+XCSnnf1M9V/VUdPn9jdr4LANTmMT2n3S9p9rU1/D2gbjaPuot253/ZWKP2rWbsJWg+RvpzP11ter12yv/XdJDtTqDifQX91v5vc6z3/YPmSsK7XPYRZ7LvzHcybzXBzLsn5n6q13XkNHnfn+i8R9jRxV5ksJAICtJj/Dohm6dALGEZvmoo3Nqu4bXFXgqd8/HwSGByfU7a8832U8Fynu8K6t2JnJVPDGrmrazKtuVqMfcur3q81ZcnItK2TBKl5DnzQxqURiSAPKsp2ZgvsSug/TujrWpv25/hMt+lwEHq9stxc6w7bVPFf2dTY82Ke2nDcAAIDNa+ucs1h/RN0TJggMa3AiEKYKmV+xS02mWrfOTFAsG1CzvWBl6arfEtZqH9ZkPfXa71agnddI3zLCKgAAm1h+hsVouSrH4nJHNx2JoQGN+cPGfsXI4fbb267APK/6FRx+jaqxeUKDsUFNNDc6rQLhPhcDGrKVwdQ+ZzxHocxwarDSuBYC65vfnkY1K4ftCQrdhzLtrg6cNhCU7d8/1+fCt8i21h/p1kRDgya6j6x/8AYAoADkaWXRO9dtosEbViyLV+qc+c2VaLtOmvMX7XDj4auV81Ute16imbfgAhfLDGdP9ElHC+pENOe5MOcFlmXuc/pz5E7+xR5OcDIX+rh95tS80fa1C8fmea6cX//89njnjQa3Z+kLa8L2IWNdZljZLB7677/Ic5HVIttqgmR1tZo3RekZAIDVi8zNjCWfufy86h48aLuWdvPmTe3atcu2FjczM6PS0lLbCnfs84/p6Kcesa2tbXJyUuXl5ba1TKaielg6uYYBcVXbsxbWYZ9CmR8QP7Zb0xvxWCg45r0wcPbLOR2rwo59HBMBLCbX936uxxJjampKRUVFtpW7keHTKt25fQudswjkwL2w5ShBEQAAH2Fxs4m2a3SzVcU2cJ/qe/krMwAABBEWAQAAEIqwCAAAgFCERQAAAIQiLAIAACAUYREAAAChCIsAAAAIRVgEAABAqLz6Cy7NTQ/aFgDkJ/6CC4D1lI9/wYU/95eHbvmf18uQb9sD3Cr8uT8A6y0fwyLD0AAAAAhFWAQAAEAowiIAAABCERYBAAAQirAIAACAUIRFAAAAhCIsAgAAIBRhEQAAAKEIiwAAAAhFWCw0iR7V1PQoYZsFYTimSCTiTrFh2wcAAApCfobFBYEooZ6aGvWkJaRhxcJCUyEGqk3L+XdqmFD3dFLJZFK99bYbAAAUhPwMi9FGNWtAQ37aSww5rWY1Rm2zp0aRSIP6vOZC0XaNjrbLLo5bKTGpCVWqnH8MAAAKUp4OQ0fV2CwN+Glx+qrU3JgKf9H2USWnu1Vt2wtstsqi2R87jBspi2vMdqf1R2zl1d33mGI1fv/aD/16YT3jcV3DiqX6zeM6bXd7+9Rg+qqaVOX8u/TEzPyYs7Qj2z640tcVMf+emf+uwXboc+E/njfNPxeZ22qq15nzM6vZAABsPXl7zmK0vFJjV6fd28ODfarcsqUpL3BVnvOGcedDsum/qqOmz+1v1sBhG5zGJrT7pO0/16a+BhvM1ogb1v3HPVep+KNm7SZsNUj+djpTb329es32Vndr2vQN1OqOsbiu7jfze1Ufug8Z61rsi4FrsefCfzxnMs/FsSzrd6be+qjajzrzB+0zNTyovrajaqciCgDY4vL3Apf6/WrrG3RiQEKTE23av1XPdTPDuE7YOpK5/+7wrq3YmclU8Mauyo3X1fND9u7z6Cw5uZYVsmAVr6FPmphUwj1VIMt2ZgruS+g+TOvq2DL+zRd9LgKPV7bbC51h25p6zXlfUNq27IsOAIB5+RsWVa/9bU7IGXY+2Cv3Oy0s4FfsUpOp1q0zExTLBtRsL1hZuuq3hLXahzVZj3nN9WlweFiDfVv4CwoAAAF5HBZNoadS8Ya4KnP51HarXWs73JoXouWqHJu/2CcxNOCds+j2x+WOAC/GDKcGK41rIbC++e0xFyXlsD1BoftQpt3VJrTZZpBfMXQs+7nwLbKt9Ue6NdHQoInuI3xBAQDAkddh0RtCXVjhcS+wcIca4yqLrP0FHPmlXr3mvMAyb4j18NVKW8nzzgecaLBDr2byL/awz4vbZ07NW8srw6PtOlo5v/757Ymq/WT69iz97xK2DxnrMv/WZnHnsU92T6SGm3N6LrJaZFtNkKyuVvOapmsAAApXZG5mLPnM5edV9+BB27W0mzdvateuXba1uJmZGZWWltpWuGOff0xHP/WIbW1tk5OTKi8vt61lMhXWw9LJNQyIq9qetbAO+xTK/ID4sd2a5qeXkIV5Lwyc/XJOx6qwYx/HRACLyfW9n+uxxJiamlJRUZFt5W5k+LRKd27P88oisMHcC1uOEhQBAPARFjebzfiD5Bu4T/W9/JUZAACCCIsAAAAIRVgEAABAKMIiAAAAQhEWAQAAEIqwCAAAgFCERQAAAIQiLAIAACBUXv0Fl+amB20LAPITf8EFwHrKx7/gwp/7A4BlWO2BnGMigMXkY1hkGBoAAAChCIsAAAAIRVgEAABAKMIiAAAAQhEWAQAAEIqwCAAAgFCERQAAAIQiLAIAACAUYREAAAChCIsAAAAIRVgEAABAKMIiAAAAQhEWAQAAEIqwCAAAgFCERQAAAIQiLAIAACAUYREAAAChCIsAAAAIRVgEAABAKMIiAAAAQhEWAQAAEIqwCAAAgFCERQAAAIQiLAIAACAUYREAAAChCIsAAAAIRVgEAABAqMjczFjymcvPq+7Bg7ZraTdv3tSuXbtsa3EzMzMqLS21rXDHPv+Yjn7qEdsCgPyU67Eq7Ni3nGMigK1pNceYbKamplRUVGRbuRsZPq3SndsJiwCwHBsVFgFgMRsZFhmGBgAAQCjCIgAAAEIRFgEAABCKsAgAAIBQhEUAAACEIiwCAAAgFD+dAwDLsJE/nXPmzBl7C8BWceDAAXtrcRv50zmERQBYho0Oi3v27LEtAJvdlStX8jIsMgwNAACAUIRFAAAAhCIsAgAAIBRhEQAAAKEIiwAAbGaz/Wpq6tesbQLLRVgEAGApJnAVF6upPxC51iGEzfY3qdh5HH9Kezxgg33/Bz/RzOyLhEUAAHJSdUgVQ3GtV34zQbF2qFGX5uY0506X1Ji4QEUQt8xdP/cO/cJ9dxIWAQDITVSxhyvU1XvRtgNs5dGrCDZ5gTJYeXTnd8i756z6m/zbvovq7ZI6u1tVYnvk3Go97rTtevo7zLq9+6VXIIOP16GOJr+/WB2BB7ng3n9hPxDm3Xe+U/e8h7AIAEDu9h7XCbVkhK2L6qhN6GG/InipUUNxJySW7FTFeEI3nCVmLwyp4pA04t7vhhJO8Nxhbvpmr+taVaP2zSfFdONdStSZ9R/XXqdZ0nrWVh+d6UQgwI5fU7Tb7z+kUy02lKbub/sf5xxG5I6wCADAMuyNdepaMGyZoKdTarFVu+LaLo27IXGv6g5d03VnwRuJCtXForpm0qJZvmJnoIKYyVQe7br8ymRVp2ImJfqClcyWU9K163a5QODcW6dDzpZd/45zO3j/HVFV2ZtALgiLAAAsR0mruhuH1HvBtg0njM2fa2gmrwLo5DIlblzUyLWodpTsU+O1EV28kVBFXTD5Odwq5JAuuImvRK1nnXVc6swe6kxQrB1S4yX7WGHLAWuEsAgAwDKVtD4sdXVp3G2YoNelbKcyluxrlB5/XNca9zkRsESmOTIiRdPGoI29inU6qzTD17ZnUYEKohnidrcj08URnTLLvd+2gRUiLAIAsGx7dfzEofnblzp1rcUOCweHj50gaZJco012pnnqWjTruYnmPMRLjUOq9ddR22XuuHC4uqRVD1d0pZaLJyrmK4tOaE3dv0U6cTZ4wQywMpG5mbHkM5efV92DB23X0m7evKldu3bZ1uJmZmZUWlpqW+GOff4xHf3UI7YFAPkp12NV2LEv12OicebMGe3Zs8e2gCWY4em41E1ALFhXrlzRgQMHbGtxyzmWTE1NqaioyLZyNzJ8WqU7t1NZBAAAQDjCIgAAm0FJq85SVcQ6ICwCAAAgFGERAAAAobjABQCWYaMvcAGwteTjBS6ERQBYho0MiwAQZiPDIsPQAAAACEVYBAAAQCjCIgAAAEIRFgEAABCKsAgAAIBQhEUAAACEIiwCAAAgFL+zCADLwI9yA1hP/Cj3IgiLAArBRofFPXv22BaAze7KlSt5GRYZhgYAAEAowiIAAABCERYBAAAQirAIAACAUIRFAABWa7ZfTU39mrXNvFdo24tbirAIAECQCVLFxSoOTB0X7bzVWGFAm+1vStuWpn4iHjYWYREAgExVnbo0N6c5M13q1LWWNQqMy2SCYu1Q4/y2zF1SY+ICFUFsKMIiAACLKWnVWRMYH7dVwbTKY5MWFPqyzp9Vf7xL4+NdqvWrg0utRxfV2yV1dreqxPY4G6PW407bVin7O8x9O5wlvWDpVx9T63OX61BHk9+fHnovuPdf2A8EERYBAFhKyU5VjCd0w4llHbUJPZyqOjZqKB4cWg6b74S87k5V2Yrl2dYbS6zHMXtd16oatW8+KaZzgmeiztz/uPY6zZLWs966zHSiQl29Nv2NX1O02+8/pFMtXricv7/t98MwkIGwCABArkyA0ym12Gpcca2pFpoQaS0135frcimz6verg/55j07wjJmU6AtWKltOSdeu2+UCgXNvnQ45j3z9O87t4P13RFVlbwKZCIsAACzFrfJFtcPcDp7P6E5eZS9lqfm+pZZzq5lDuuAmvhK1nnWWudSZPdSZoFg7pMZLdl1hywErQFgEAGBRZmi5SxUPt6rEDXBd8kd4F1hqvl89XGo5117FOqWuzOHpMIEK4uyFIY17N9NdHNEps9z7bRvIAWERAIBMTpAzF6K4Q7rFjyt6aU7H3bLfXh23V0d785wp7edwFplf0qqHD3lDz039O5ZYj8ech3ipcWh+W5zQqsZ9gQteLLPuivltjicq5iuLwX1pkU6cDV4wAywtMjczlnzm8vOqe/Cg7VrazZs3tWvXLtta3MzMjEpLS20r3LHPP6ajn3rEtgAgP+V6rAo79uV6TDTOnDmjPXv22BawAmZ4Oi51ExALwpUrV3TgwAHbWtxyjiVTU1MqKiqyrdyNDJ9W6c7tVBYBAAAQjrAIAMBmZX4jkqoiVomwCAAAgFCERQAAAITiAhcAWIaNvsAFwNaSjxe45FVYBIBCsFFhEQDCbMmwCACbCWERwHrayLDIOYsAAAAIRVgEAABAKMIiAAAAQhEWAQAAEIqwCAAAgFCERQAAAIQiLAIAACDUhvzOIgBsRWG/swgAa2Gjfmdx3cMiAAAAbh1+lBsAAADrhrAIAACAUIRFAAAAhCIsAgAAYIHJqdv14x9HCIsAAABY6D8++XP63boiwiIAAAAW+ie//bo+dP/PCIsAAABYaN/e1/Sl//tFwiIAAADCERYBAAAQirAIAACAUIRFAAAAhFrx34YGAABAYVjN34ZeUVgEAADA5uaHRYahAQAAEIqwCAAAgFCERQAAAIQiLAIAACAUYREAAAChCIsAAAAIRVgEAABAKMIiAAAAQhEWAQAAEIqwCAAAgFCERQAAAIQiLAIAACBUZG5mLPnM5edV9+BB27VyFy5csLcAZNq3b5+9tRDvHSA73jfAyiz23snVyPBple7cvvZhcc+ePbYFwHflypUlP/R47wDpeN8AK7PUeydXflhkGBoAAAChCIsAAAAIRVgEAABAKMIiAAAAQhEWAWAps/1qaurXrG0CWCO8twoCYXETmO1vUnFxcWpq6rdvu8w34cUOd37HRdsGtoRZ9Tc57w0+kICl2c+J1MQHBhyExQJngmLtUKMuzc1pzp1OqKKrdj4w+kxwbLmmzktzOr7X9gFbwewFDemQ878hXSAtAqHcwkOLdCL1eTKnExoRcRGExYJ2Ub1dUmd3q0psj7RXxy91SkMX5qsoJijWDqnx0lm1zi8IbAmzF4akxpjqKsadt4V9V7hV9w51mIqjraC4BZSw/hSvSjnfd1EdxU3K/G4GFJ5ZmbdK56XjzqfIvL3HvXb6CJZ9zdvRq/6ObO8X897I6DfLp/p43xQSwmIhm72ua1WN2pcZAEt2qmI8oRtuY0hxgiK2LO8DsNF5k+ytO6Tx4Jeo8WuKdtsKyolDOtXS4VVQwvpdJWp92OkbsT0XR3Tq0MO8t1D4TAV+vEI7Q17LJa1nU9XGuRMV6uq174HxLiXqAu+Xx83pHuZLlVuiTN3n+F4nPNYm9LC/jkuNGopzakihICxuduPOB2Wn88bmTYmtyB2Ctl+o9tbp0HhgKDr4RcvM0zVd/45zO6zfZ/pOeUNzF0dO6VAd53Vgk6iKaoe9uUCwKthySrp23ftMqepUzH8L7IiqyvzXfd8F+g1T3NAptfjrqO3SeKqogXxHWCxkbgUxy3lYbsXRvunNB1/rcV1qHFJt+ngasOmZIejx8S7Vuh9QLc5HVWAoesX2qu7QKY1cvKiRU4dEVsSmEPZ5Ypig6I5Q+VXBTi8ULpcTLOfPrzdT+pA38hdhsaDtVaxTGVVDU+rvMuNugfMYzRBCtzqvtSy88AXYtMwQ9LgOBYbCzDBZ2lC0zwwnmy9W77dtX0j/XueNd62lRdc6Y3zYYZOwnye1wdMunLdAh20HKu7ulzDvZnYl+9SoLvkj1S43jGb0oWAQFgucOY/ErRr6pX3vUjadXXASVYlaz4ZcKQ1sRtmGwvyhaDOsnKo4OpN525y1F4qF9QeZD8OqKvdcSGCzcD9POq/NDxU7U4vqtLekVQ9XzL8v4omKJSqLzudNt/lCNb+ejovexZfBPn7OqnBE5mbGks9cfl51Dx60XSt34cIF7dmzx7YA+K5cuaJ9+/bZ1kK8dzaYGVaLS92ZQTCsP5P5LbrHo7q01HJYFd43wMos9d7J1cjwaZXu3E5lEQCWy72w5WGCIoCtgbAIYOspadXZrMPLIf0Z9h7nx+0BbB2ERQAAAIQiLAIAACDUml/gAiC7pU7UB7AQ7xtgZdbyApc1DYsAAADYHLgaGgAAAEsiLAIAACAUYREAAAChCIsAAAAIRVgEAABAKMIiAAAAQhEWAQAAEGpbJGJvAQAAAAERJyhSWQQAAECobSYxAgAAAJncyiJhEQAAANkQFgEAABDKxMRtEREWAQAAsBCVRQAAACyKsAgAAICsqCwCAAAg1LZt2xT5hxe+nrz49BXbhXz11IUX9LXR79tWuv/ut35JD/7TX7EtAPnoyvg1/eQnr9mW59d+tUg7St5nW/P6/91/0j+t+x29//3vtT1YrR/96DUlnf/e8/N3eB1Ytddff1MvOc/re3/5LtuDtfDt7/xIv7r9PYpsy49i3m9WRr2w+NZbb+tnb/zM+Yf/md544029+eabMn1vvfWW3n77bXfhZNK8zXCrvP762870lv70k/9Vz0285PaV7/p5/R+P/SO9853bdMcdt7l9APLTmb+6pBdfesW2PPf/Rpn2VJXb1rzWtk8q/sgf69c/uMv2YLX+/uarTlhM6n1Fd9serNarP/mZXvj7V7Sr9BdsD9bC333z71W5u0jbNiAs+qPL5r/ByVQTb7ttm26//XZnuk2RF28+lzTh8M0333IC4xtuUDS3/aDoh8T5/7r/wS3S2vZVPTv+A/f2Bz9wr/7DyVr3NoD8dvrMV/TDF39sW56qD5Xrtz6827bmHf4X7fqzf/W/6DcqK2wPVut7f/9jt7K4/b3v8Tqwaq/+5HV993s/Vnn0l2wP1sLXJ17Qb37gvdrmhLX1YjOiGwx9mYHRhMXbbrtN73jHOxT50Q++mTTB0EwmLHq3vaqiCYiZYRG31v/wPz2ty1e8sFj56/fqL5/c694GkN/+4+mn9MMfpofFPVUV+ke/9QHbmvfQoU+o41//r7r/NxcGSazMC997xa0s/sr7CItr5ZVXf6bvvPAj7d5FWFxLz/7dC7r/19/nBLWNrSz6//Unv7p427bb9P8DEQ2RmQLr6VIAAAAASUVORK5CYII=;" vertex="1" parent="1">
          <mxGeometry x="40" y="163" width="651" height="525" as="geometry" />
        </mxCell>
        <mxCell id="0TGblvGgAYBKJKgvkOkP-3" value="" style="rounded=0;whiteSpace=wrap;html=1;fillColor=none;strokeWidth=5;strokeColor=#FF0000;" vertex="1" parent="1">
          <mxGeometry x="390" y="350" width="270" height="40" as="geometry" />
        </mxCell>
        <mxCell id="0TGblvGgAYBKJKgvkOkP-7" value="Click on a trace to edit its properties." style="shape=callout;whiteSpace=wrap;html=1;perimeter=calloutPerimeter;direction=south;size=50;position=0.33;fillColor=#f8cecc;strokeColor=#b85450;fontStyle=1" vertex="1" parent="1">
          <mxGeometry x="660" y="340" width="210" height="60" as="geometry" />
        </mxCell>
        <mxCell id="0TGblvGgAYBKJKgvkOkP-8" value="" style="rounded=0;whiteSpace=wrap;html=1;fillColor=none;strokeWidth=5;strokeColor=#FF0000;" vertex="1" parent="1">
          <mxGeometry x="60" y="230" width="600" height="100" as="geometry" />
        </mxCell>
        <mxCell id="0TGblvGgAYBKJKgvkOkP-9" value="Edit the properties of the selected trace." style="shape=callout;whiteSpace=wrap;html=1;perimeter=calloutPerimeter;direction=south;size=50;position=0.33;fillColor=#f8cecc;strokeColor=#b85450;fontStyle=1" vertex="1" parent="1">
          <mxGeometry x="660" y="260" width="210" height="60" as="geometry" />
        </mxCell>
        <mxCell id="0TGblvGgAYBKJKgvkOkP-10" value="Line Style" style="shape=callout;whiteSpace=wrap;html=1;perimeter=calloutPerimeter;base=20;size=170;position=0.5;position2=0.92;fillColor=#f8cecc;strokeColor=#b85450;fontStyle=1" vertex="1" parent="1">
          <mxGeometry x="250" y="80" width="120" height="230" as="geometry" />
        </mxCell>
        <mxCell id="0TGblvGgAYBKJKgvkOkP-11" value="Line Thickness" style="shape=callout;whiteSpace=wrap;html=1;perimeter=calloutPerimeter;base=20;size=170;position=0.5;position2=0.92;fillColor=#f8cecc;strokeColor=#b85450;fontStyle=1" vertex="1" parent="1">
          <mxGeometry x="380" y="80" width="120" height="230" as="geometry" />
        </mxCell>
        <mxCell id="0TGblvGgAYBKJKgvkOkP-12" value="Scale Location" style="shape=callout;whiteSpace=wrap;html=1;perimeter=calloutPerimeter;base=20;size=170;position=0.5;position2=0;fillColor=#f8cecc;strokeColor=#b85450;fontStyle=1" vertex="1" parent="1">
          <mxGeometry x="640" y="80" width="90" height="230" as="geometry" />
        </mxCell>
        <mxCell id="0TGblvGgAYBKJKgvkOkP-13" value="Independent Variable to Plot Against" style="shape=callout;whiteSpace=wrap;html=1;perimeter=calloutPerimeter;base=20;size=130;position=0.37;position2=0.58;fillColor=#f8cecc;strokeColor=#b85450;fontStyle=1" vertex="1" parent="1">
          <mxGeometry x="510" y="80" width="121" height="190" as="geometry" />
        </mxCell>
      </root>
    </mxGraphModel>
  </diagram>
</mxfile>
